<mxfile host="app.diagrams.net" modified="2020-03-15T08:56:21.312Z" agent="Mozilla/5.0 (X11; Ubuntu; Linux x86_64; rv:74.0) Gecko/20100101 Firefox/74.0" etag="zBIzpXvABYfgV9reWko2" version="12.8.5" type="github">
  <diagram id="teRwakjtQcFkAFb6qM42" name="Page-1">
    <mxGraphModel dx="1035" dy="596" grid="1" gridSize="10" guides="1" tooltips="1" connect="1" arrows="1" fold="1" page="1" pageScale="1" pageWidth="827" pageHeight="1169" math="0" shadow="0">
      <root>
        <mxCell id="0" />
        <mxCell id="1" parent="0" />
        <mxCell id="fduMmqAsec186wPbh8oE-9" style="rounded=0;orthogonalLoop=1;jettySize=auto;html=1;entryX=1;entryY=1;entryDx=0;entryDy=0;" parent="1" source="fduMmqAsec186wPbh8oE-5" target="fduMmqAsec186wPbh8oE-6" edge="1">
          <mxGeometry relative="1" as="geometry" />
        </mxCell>
        <mxCell id="fduMmqAsec186wPbh8oE-11" style="edgeStyle=none;rounded=0;orthogonalLoop=1;jettySize=auto;html=1;" parent="1" source="fduMmqAsec186wPbh8oE-5" target="fduMmqAsec186wPbh8oE-7" edge="1">
          <mxGeometry relative="1" as="geometry" />
        </mxCell>
        <mxCell id="fduMmqAsec186wPbh8oE-12" style="edgeStyle=none;rounded=0;orthogonalLoop=1;jettySize=auto;html=1;" parent="1" source="fduMmqAsec186wPbh8oE-5" target="fduMmqAsec186wPbh8oE-10" edge="1">
          <mxGeometry relative="1" as="geometry" />
        </mxCell>
        <mxCell id="fduMmqAsec186wPbh8oE-5" value="id: api1&lt;br&gt;needs:[$2,$3,$4]" style="ellipse;whiteSpace=wrap;html=1;fillColor=#66FF66;" parent="1" vertex="1">
          <mxGeometry x="310" y="530" width="120" height="80" as="geometry" />
        </mxCell>
        <mxCell id="fduMmqAsec186wPbh8oE-14" style="edgeStyle=none;rounded=0;orthogonalLoop=1;jettySize=auto;html=1;" parent="1" source="fduMmqAsec186wPbh8oE-6" target="fduMmqAsec186wPbh8oE-13" edge="1">
          <mxGeometry relative="1" as="geometry" />
        </mxCell>
        <mxCell id="fduMmqAsec186wPbh8oE-6" value="id: api2&lt;br&gt;&lt;div&gt;needs:[$5]&lt;br&gt;outputs:[$2]&lt;br&gt;&lt;/div&gt;" style="ellipse;whiteSpace=wrap;html=1;" parent="1" vertex="1">
          <mxGeometry x="120" y="390" width="120" height="80" as="geometry" />
        </mxCell>
        <mxCell id="fduMmqAsec186wPbh8oE-28" style="edgeStyle=none;rounded=0;orthogonalLoop=1;jettySize=auto;html=1;" parent="1" source="fduMmqAsec186wPbh8oE-7" target="fduMmqAsec186wPbh8oE-15" edge="1">
          <mxGeometry relative="1" as="geometry" />
        </mxCell>
        <mxCell id="fduMmqAsec186wPbh8oE-38" style="edgeStyle=none;rounded=0;orthogonalLoop=1;jettySize=auto;html=1;" parent="1" source="fduMmqAsec186wPbh8oE-7" target="fduMmqAsec186wPbh8oE-17" edge="1">
          <mxGeometry relative="1" as="geometry" />
        </mxCell>
        <mxCell id="fduMmqAsec186wPbh8oE-7" value="id: api3&lt;br&gt;&lt;div&gt;needs:[$6,$7,$103]&lt;/div&gt;&lt;div&gt;outputs:[$3]&lt;br&gt;&lt;/div&gt;" style="ellipse;whiteSpace=wrap;html=1;" parent="1" vertex="1">
          <mxGeometry x="330" y="360" width="120" height="80" as="geometry" />
        </mxCell>
        <mxCell id="fduMmqAsec186wPbh8oE-43" style="edgeStyle=none;rounded=0;orthogonalLoop=1;jettySize=auto;html=1;" parent="1" source="fduMmqAsec186wPbh8oE-10" target="fduMmqAsec186wPbh8oE-19" edge="1">
          <mxGeometry relative="1" as="geometry" />
        </mxCell>
        <mxCell id="fduMmqAsec186wPbh8oE-44" style="edgeStyle=none;rounded=0;orthogonalLoop=1;jettySize=auto;html=1;" parent="1" source="fduMmqAsec186wPbh8oE-10" target="fduMmqAsec186wPbh8oE-18" edge="1">
          <mxGeometry relative="1" as="geometry" />
        </mxCell>
        <mxCell id="fduMmqAsec186wPbh8oE-10" value="id: api4&lt;br&gt;&lt;div&gt;needs:[$8,$9]&lt;/div&gt;&lt;div&gt;outputs:[$4]&lt;br&gt;&lt;/div&gt;" style="ellipse;whiteSpace=wrap;html=1;fillColor=#f8cecc;strokeColor=#b85450;" parent="1" vertex="1">
          <mxGeometry x="500" y="420" width="120" height="80" as="geometry" />
        </mxCell>
        <mxCell id="fduMmqAsec186wPbh8oE-30" style="edgeStyle=none;rounded=0;orthogonalLoop=1;jettySize=auto;html=1;" parent="1" source="fduMmqAsec186wPbh8oE-13" target="fduMmqAsec186wPbh8oE-20" edge="1">
          <mxGeometry relative="1" as="geometry" />
        </mxCell>
        <mxCell id="fduMmqAsec186wPbh8oE-13" value="id: api5&lt;br&gt;&lt;div&gt;needs:[$10]&lt;br&gt;outputs:[$5]&lt;br&gt;&lt;/div&gt;" style="ellipse;whiteSpace=wrap;html=1;fillColor=#f8cecc;strokeColor=#b85450;" parent="1" vertex="1">
          <mxGeometry x="50" y="240" width="120" height="80" as="geometry" />
        </mxCell>
        <mxCell id="fduMmqAsec186wPbh8oE-29" style="edgeStyle=none;rounded=0;orthogonalLoop=1;jettySize=auto;html=1;" parent="1" source="fduMmqAsec186wPbh8oE-15" target="fduMmqAsec186wPbh8oE-20" edge="1">
          <mxGeometry relative="1" as="geometry" />
        </mxCell>
        <mxCell id="fduMmqAsec186wPbh8oE-35" style="edgeStyle=none;rounded=0;orthogonalLoop=1;jettySize=auto;html=1;" parent="1" source="fduMmqAsec186wPbh8oE-15" target="fduMmqAsec186wPbh8oE-26" edge="1">
          <mxGeometry relative="1" as="geometry" />
        </mxCell>
        <mxCell id="fduMmqAsec186wPbh8oE-15" value="id: api6&lt;br&gt;&lt;div&gt;needs:[$10,$11]&lt;/div&gt;&lt;div&gt;outputs:[$6,$6-1]&lt;br&gt;&lt;/div&gt;" style="ellipse;whiteSpace=wrap;html=1;" parent="1" vertex="1">
          <mxGeometry x="240" y="250" width="120" height="80" as="geometry" />
        </mxCell>
        <mxCell id="fduMmqAsec186wPbh8oE-39" style="edgeStyle=none;rounded=0;orthogonalLoop=1;jettySize=auto;html=1;" parent="1" source="fduMmqAsec186wPbh8oE-17" target="fduMmqAsec186wPbh8oE-26" edge="1">
          <mxGeometry relative="1" as="geometry" />
        </mxCell>
        <mxCell id="fduMmqAsec186wPbh8oE-40" style="edgeStyle=none;rounded=0;orthogonalLoop=1;jettySize=auto;html=1;" parent="1" source="fduMmqAsec186wPbh8oE-17" target="fduMmqAsec186wPbh8oE-24" edge="1">
          <mxGeometry relative="1" as="geometry" />
        </mxCell>
        <mxCell id="fduMmqAsec186wPbh8oE-17" value="id: api7&lt;br&gt;&lt;div&gt;needs:[$11-1,$12]&lt;/div&gt;&lt;div&gt;outputs:[$7]&lt;br&gt;&lt;/div&gt;" style="ellipse;whiteSpace=wrap;html=1;" parent="1" vertex="1">
          <mxGeometry x="474" y="280" width="120" height="80" as="geometry" />
        </mxCell>
        <mxCell id="fduMmqAsec186wPbh8oE-18" value="id: api8&lt;br&gt;&lt;div&gt;needs:[$102]&lt;/div&gt;&lt;div&gt;outputs:[$8]&lt;br&gt;&lt;/div&gt;" style="ellipse;whiteSpace=wrap;html=1;" parent="1" vertex="1">
          <mxGeometry x="680" y="280" width="120" height="80" as="geometry" />
        </mxCell>
        <mxCell id="fduMmqAsec186wPbh8oE-19" value="id: api9&lt;br&gt;&lt;div&gt;needs:[]&lt;/div&gt;&lt;div&gt;outputs:[$9]&lt;br&gt;&lt;/div&gt;" style="ellipse;whiteSpace=wrap;html=1;" parent="1" vertex="1">
          <mxGeometry x="690" y="410" width="120" height="80" as="geometry" />
        </mxCell>
        <mxCell id="fduMmqAsec186wPbh8oE-31" style="edgeStyle=none;rounded=0;orthogonalLoop=1;jettySize=auto;html=1;" parent="1" source="fduMmqAsec186wPbh8oE-20" target="fduMmqAsec186wPbh8oE-21" edge="1">
          <mxGeometry relative="1" as="geometry" />
        </mxCell>
        <mxCell id="fduMmqAsec186wPbh8oE-34" style="edgeStyle=none;rounded=0;orthogonalLoop=1;jettySize=auto;html=1;" parent="1" source="fduMmqAsec186wPbh8oE-20" target="fduMmqAsec186wPbh8oE-23" edge="1">
          <mxGeometry relative="1" as="geometry" />
        </mxCell>
        <mxCell id="fduMmqAsec186wPbh8oE-20" value="id: api10&lt;br&gt;&lt;div&gt;needs:[$13,$14]&lt;/div&gt;&lt;div&gt;outputs:[$10]&lt;br&gt;&lt;/div&gt;" style="ellipse;whiteSpace=wrap;html=1;" parent="1" vertex="1">
          <mxGeometry x="120" y="120" width="120" height="80" as="geometry" />
        </mxCell>
        <mxCell id="fduMmqAsec186wPbh8oE-21" value="id: api13&lt;br&gt;&lt;div&gt;needs:[$100]&lt;/div&gt;&lt;div&gt;outputs:[$13]&lt;br&gt;&lt;/div&gt;" style="ellipse;whiteSpace=wrap;html=1;" parent="1" vertex="1">
          <mxGeometry x="10" y="20" width="120" height="80" as="geometry" />
        </mxCell>
        <mxCell id="fduMmqAsec186wPbh8oE-23" value="id: api14&lt;br&gt;&lt;div&gt;needs:[]&lt;/div&gt;&lt;div&gt;outputs:[$14]&lt;br&gt;&lt;/div&gt;" style="ellipse;whiteSpace=wrap;html=1;" parent="1" vertex="1">
          <mxGeometry x="210" y="10" width="120" height="80" as="geometry" />
        </mxCell>
        <mxCell id="fduMmqAsec186wPbh8oE-41" style="edgeStyle=none;rounded=0;orthogonalLoop=1;jettySize=auto;html=1;" parent="1" source="fduMmqAsec186wPbh8oE-24" target="fduMmqAsec186wPbh8oE-25" edge="1">
          <mxGeometry relative="1" as="geometry" />
        </mxCell>
        <mxCell id="fduMmqAsec186wPbh8oE-24" value="id: api12&lt;br&gt;&lt;div&gt;needs:[$16]&lt;/div&gt;&lt;div&gt;outputs:[$12]&lt;br&gt;&lt;/div&gt;" style="ellipse;whiteSpace=wrap;html=1;fillColor=#f8cecc;strokeColor=#b85450;" parent="1" vertex="1">
          <mxGeometry x="630" y="150" width="120" height="80" as="geometry" />
        </mxCell>
        <mxCell id="fduMmqAsec186wPbh8oE-42" style="edgeStyle=none;rounded=0;orthogonalLoop=1;jettySize=auto;html=1;" parent="1" source="fduMmqAsec186wPbh8oE-25" target="fduMmqAsec186wPbh8oE-27" edge="1">
          <mxGeometry relative="1" as="geometry" />
        </mxCell>
        <mxCell id="fduMmqAsec186wPbh8oE-25" value="id: api16&lt;br&gt;&lt;div&gt;needs:[$15]&lt;/div&gt;&lt;div&gt;outputs:[$16]&lt;br&gt;&lt;/div&gt;" style="ellipse;whiteSpace=wrap;html=1;" parent="1" vertex="1">
          <mxGeometry x="590" y="30" width="120" height="80" as="geometry" />
        </mxCell>
        <mxCell id="fduMmqAsec186wPbh8oE-36" style="edgeStyle=none;rounded=0;orthogonalLoop=1;jettySize=auto;html=1;" parent="1" source="fduMmqAsec186wPbh8oE-26" target="fduMmqAsec186wPbh8oE-27" edge="1">
          <mxGeometry relative="1" as="geometry" />
        </mxCell>
        <mxCell id="fduMmqAsec186wPbh8oE-26" value="id: api11&lt;br&gt;&lt;div&gt;needs:[$15,$101]&lt;/div&gt;&lt;div&gt;outputs:[$11,$11-1]&lt;br&gt;&lt;/div&gt;" style="ellipse;whiteSpace=wrap;html=1;fillColor=#f8cecc;strokeColor=#b85450;" parent="1" vertex="1">
          <mxGeometry x="420" y="140" width="120" height="80" as="geometry" />
        </mxCell>
        <mxCell id="fduMmqAsec186wPbh8oE-37" style="edgeStyle=none;rounded=0;orthogonalLoop=1;jettySize=auto;html=1;entryX=0.5;entryY=0;entryDx=0;entryDy=0;" parent="1" source="fduMmqAsec186wPbh8oE-27" target="fduMmqAsec186wPbh8oE-15" edge="1">
          <mxGeometry relative="1" as="geometry" />
        </mxCell>
        <mxCell id="fduMmqAsec186wPbh8oE-27" value="id: api15&lt;br&gt;&lt;div&gt;needs:[$6-1]&lt;/div&gt;&lt;div&gt;outputs:[$15]&lt;br&gt;&lt;/div&gt;" style="ellipse;whiteSpace=wrap;html=1;" parent="1" vertex="1">
          <mxGeometry x="354" y="30" width="120" height="80" as="geometry" />
        </mxCell>
      </root>
    </mxGraphModel>
  </diagram>
</mxfile>
